<?xml version="1.0" encoding="UTF-8"?>
<svg xmlns="http://www.w3.org/2000/svg" viewBox="0 0 31.2 31.2">
  <path fill="none" stroke="#3d3d3b" stroke-linecap="round" stroke-linejoin="round" stroke-width="1.299" d="M27.9 19.3l-9.9 10-4.9 1 1-4.9 9.9-9.9c.5-.5 1.2-.8 1.9-.8s1.4.3 1.9.8h0c1.2 1 1.2 2.8.1 3.8zM9.2 26.3H4.4c-1.1 0-2-.9-2-2V2.9c0-1.1.9-2 2-2h16.5c1.1 0 2 .9 2 2v8.8" style="stroke: #464646;"></path>
  <path fill="#3d3d3b" d="M18.6 5.7c-1.6 0-5.6-.1-6.8-.1-.6 0-1.1 0-1.7.2-.2 0-2-.1-2-.1-.3.5-.9 1.1 0 1.4.5.2 1.2-.1 1.7 0 1.1 0 3.3.1 4.4.2.9.1 2.8-.1 4.4-.1 0 0 .3-.9.2-1.2 0-.3-.2-.3-.2-.3zm-2.2 4.6c-.1-.3-.1-.3-.2-.4-.1-.1-.3-.2-.5-.2h-1.4c-.6 0-1.2-.1-1.9-.1H9.1c-.5 0-1-.1-1.3.4-.3.4 0 .8.5.9.5.1 1 .1 1.6 0 1-.2 1.9 0 2.8 0 .4 0 .5-.1.9-.1.1 0 .7.1.8.2 0 0 .6-.1.8-.1.3.1.6 0 .6 0h.1c.2-.1.5-.3.5-.6zm-2.3 3.1c-.5-.3-.6-.1-1.7-.1H9.8c-.1 0-.2-.1-.3-.1h-.3c-.3.1-1.3.2-1.5.5s.3.8.6.9c.8.1 1.5 0 2.3 0h1.5c1.6 0 2.7-.2 2-1.2z" style="fill: #464646;"></path>
</svg>
